<?xml version="1.0" standalone="no"?>
<!DOCTYPE svg PUBLIC "-//W3C//DTD SVG 1.1//EN" "http://www.w3.org/Graphics/SVG/1.1/DTD/svg11.dtd" >
<svg xmlns="http://www.w3.org/2000/svg">
<metadata>
<json>
<![CDATA[
{
	"fontFamily": "Cloud-analysis-icon",
	"majorVersion": 1,
	"minorVersion": 0,
	"version": "Version 1.0",
	"fontId": "Cloud-analysis-icon",
	"psName": "Cloud-analysis-icon",
	"subFamily": "Regular",
	"fullName": "Cloud-analysis-icon",
	"description": "Font generated by IcoMoon."
}
]]>
</json>
</metadata>
<defs>
<font id="Cloud-analysis-icon" horiz-adv-x="1024">
<font-face units-per-em="1024" ascent="921.6" descent="-102.4" />
<missing-glyph horiz-adv-x="1024" />
<glyph unicode="&#x20;" horiz-adv-x="512" d="" />
<glyph unicode="&#xe900;" glyph-name="add" data-tags="add" d="M436.8 736v0-249.6h-249.6c-41.6 0-76.8-35.2-76.8-73.6 0-44.8 35.2-76.8 76.8-76.8h251.2v-251.2c0-41.6 35.2-76.8 73.6-76.8 41.6 0 76.8 35.2 76.8 76.8v248h251.2c41.6 0 73.6 32 73.6 75.2 0 41.6-32 73.6-73.6 73.6h-254.4v254.4c0 41.6-33.6 73.6-75.2 73.6-38.4 0-73.6-32-73.6-73.6v0z" />
<glyph unicode="&#xe901;" glyph-name="cross" data-tags="cross" d="M227.2 587.2v0l176-176-176-176c-28.8-28.8-28.8-78.4-1.6-105.6 32-32 78.4-28.8 108.8 0l177.6 176 177.6-177.6c28.8-28.8 78.4-28.8 105.6-1.6 28.8 28.8 28.8 78.4 0 108.8l-176 176 177.6 177.6c28.8 28.8 28.8 75.2-1.6 105.6-28.8 28.8-75.2 28.8-104 0l-179.2-182.4-179.2 180.8c-28.8 28.8-75.2 28.8-105.6-1.6-27.2-27.2-28.8-75.2 0-104v0z" />
<glyph unicode="&#xe902;" glyph-name="lessen" data-tags="lessen" d="M888 356.8c-11.2-11.2-33.6-22.4-52.8-22.4-278.4 0-283.2 0-310.4 0-25.6 0-52.8 0-332.8 0-19.2 0-40 8-56 22.4-11.2 14.4-22.4 33.6-22.4 56 0 19.2 8 40 22.4 52.8 16 11.2 35.2 20.8 56 20.8 278.4 0 305.6 0 332.8 0s33.6 0 310.4 0c19.2 0 40-8 52.8-22.4 14.4-14.4 22.4-33.6 22.4-52.8s-9.6-36.8-22.4-54.4z" />
<glyph unicode="&#xe903;" glyph-name="tick" data-tags="tick" d="M921.6 595.2l-400-472c-27.2-32-73.6-36.8-105.6-11.2l-3.2 3.2-243.2 201.6c-32 27.2-36.8 73.6-11.2 105.6s73.6 36.8 105.6 11.2l188.8-158.4 352 416c27.2 32 73.6 35.2 105.6 8 35.2-25.6 38.4-72 11.2-104z" />
<glyph unicode="&#xe904;" glyph-name="api2" data-tags="api" d="M516.8-96c168 0 321.6 75.2 424 192h-844.8c104-116.8 254.4-192 420.8-192zM516.8 915.2c-168 0-318.4-72-420.8-192h844.8c-102.4 120-252.8 192-424 192zM438.4 177.6h-108.8l-30.4 99.2h-156.8l-30.4-99.2h-108.8l160 444.8h120l155.2-444.8zM275.2 352l-48 150.4c-3.2 9.6-6.4 24-6.4 41.6h-3.2c0-14.4-3.2-27.2-6.4-36.8l-48-150.4h112v-4.8zM595.2 331.2v-153.6h-99.2v443.2h156.8c112 0 168-48 168-140.8 0-44.8-17.6-81.6-48-108.8s-75.2-41.6-129.6-41.6l-48 1.6zM595.2 542.4v-140.8h41.6c54.4 0 78.4 24 78.4 68.8s-27.2 68.8-78.4 68.8h-41.6v3.2zM1022.4 620.8v-78.4h-36.8v-291.2h36.8v-75.2h-174.4v78.4h36.8v291.2h-36.8v75.2h174.4z" />
<glyph unicode="&#xe905;" glyph-name="arrow-down" data-tags="arrow-down" d="M820.8 612.8c16 16 54.4 20.8 76.8-3.2 27.2-32 14.4-65.6-3.2-83.2l-350.4-326.4c-17.6-16-44.8-16-62.4 0l-350.4 326.4c-17.6 16-32 56-1.6 88 22.4 22.4 54.4 19.2 72 3.2l307.2-291.2 312 286.4z" />
<glyph unicode="&#xe906;" glyph-name="arrow-left" data-tags="arrow-left" d="M716.8 99.2c16-16 20.8-56-3.2-76.8-32-27.2-67.2-14.4-83.2 3.2l-329.6 352c-16 17.6-16 44.8 0 62.4l329.6 353.6c16 17.6 56 32 89.6 1.6 22.4-22.4 19.2-56 3.2-73.6l-294.4-312 288-310.4z" />
<glyph unicode="&#xe907;" glyph-name="arrow-right" data-tags="arrow-right" d="M595.2 409.6l-292.8 312c-16 17.6-20.8 51.2 3.2 73.6 32 32 73.6 16 89.6-1.6l329.6-353.6c16-17.6 16-44.8 0-62.4l-331.2-353.6c-16-16-51.2-30.4-83.2-3.2-25.6 20.8-20.8 60.8-3.2 76.8l288 312z" />
<glyph unicode="&#xe908;" glyph-name="arrow-up" data-tags="arrow-up" d="M508.8 492.8l-307.2-291.2c-17.6-16-49.6-19.2-72 3.2-30.4 32-16 72 1.6 88l350.4 326.4c17.6 16 44.8 16 62.4 0l350.4-326.4c17.6-17.6 30.4-51.2 3.2-83.2-22.4-24-60.8-19.2-76.8-3.2l-312 286.4z" />
<glyph unicode="&#xe909;" glyph-name="back" data-tags="back" d="M1004.8-12.8c0 0-9.6-25.6-22.4 0 0 0-14.4 406.4-520 310.4v-155.2c0 0 6.4-112-76.8-28.8l-353.6 305.6c0 0-75.2 40 4.8 96l356.8 307.2c0 0 67.2 59.2 67.2-24v-148.8c0 0 683.2 6.4 544-662.4z" />
<glyph unicode="&#xe90a;" glyph-name="calendar" data-tags="calendar" d="M772.8 379.2h-260.8v-267.2h260.8v267.2zM720 921.6v-107.2h-416v107.2h-104v-107.2h-52.8c-57.6 0-104-48-104-107.2v-702.4c0-59.2 48-107.2 104-107.2h728c57.6 0 104 48 104 107.2v702.4c0 59.2-46.4 107.2-104 107.2h-52.8v107.2h-102.4zM876.8 4.8h-729.6v542.4h728v-542.4h1.6z" />
<glyph unicode="&#xe90b;" glyph-name="caret-bottom" data-tags="caret-bottom" d="M352 651.2v0h524.8c8 0 16-4.8 24-11.2 14.4-14.4 14.4-38.4 0-54.4l-364.8-408h-1.6c-12.8-14.4-35.2-14.4-46.4 0l-364.8 409.6c-6.4 6.4-11.2 16-11.2 27.2 0 20.8 14.4 36.8 33.6 36.8h206.4z" />
<glyph unicode="&#xe90c;" glyph-name="caret-left" data-tags="caret-left" d="M750.4 251.2v-201.6c0-17.6-16-32-36.8-32-11.2 0-22.4 4.8-28.8 11.2l-401.6 356.8c-12.8 12.8-14.4 33.6 0 46.4v0 1.6l404.8 358.4c14.4 12.8 38.4 12.8 52.8 0 6.4-6.4 11.2-14.4 11.2-22.4v-201.6l-1.6-316.8z" />
<glyph unicode="&#xe90d;" glyph-name="caret-right" data-tags="caret-right" d="M273.6 251.2v0 518.4c0 8 4.8 16 11.2 22.4 14.4 12.8 38.4 12.8 52.8 0l404.8-360v-1.6c14.4-12.8 12.8-33.6 0-46.4l-404.8-356.8c-6.4-6.4-16-11.2-28.8-11.2-20.8 0-36.8 14.4-36.8 32l1.6 203.2z" />
<glyph unicode="&#xe90e;" glyph-name="caret-top" data-tags="caret-top" d="M355.2 171.2h-203.2c-17.6 0-32 16-32 36.8 0 11.2 4.8 22.4 11.2 28.8l356.8 401.6c12.8 12.8 33.6 14.4 46.4 0v0h1.6l358.4-404.8c12.8-14.4 12.8-38.4 0-52.8-6.4-6.4-14.4-11.2-22.4-11.2h-201.6l-315.2 1.6z" />
<glyph unicode="&#xe90f;" glyph-name="cellphone" data-tags="cellphone" d="M728 921.6h-432c-65.6 0-118.4-52.8-118.4-118.4v-787.2c0-65.6 52.8-118.4 118.4-118.4h433.6c65.6 0 118.4 52.8 118.4 118.4v787.2c-1.6 65.6-54.4 118.4-120 118.4zM472 881.6h78.4c11.2 0 19.2-9.6 19.2-19.2 0-11.2-9.6-19.2-19.2-19.2h-78.4c-11.2 0-19.2 9.6-19.2 19.2 0 11.2 9.6 19.2 19.2 19.2zM512-54.4c-27.2 0-49.6 22.4-49.6 49.6s22.4 49.6 49.6 49.6c27.2 0 49.6-22.4 49.6-49.6s-22.4-49.6-49.6-49.6zM768 113.6c0-11.2-9.6-19.2-19.2-19.2h-473.6c-11.2 0-19.2 9.6-19.2 19.2v668.8c0 11.2 9.6 19.2 19.2 19.2h472c11.2 0 19.2-9.6 19.2-19.2v-668.8z" />
<glyph unicode="&#xe910;" glyph-name="computer" data-tags="computer" d="M814.4 17.6v0h-132.8c-4.8 54.4-49.6 99.2-107.2 99.2h-128c-59.2 0-107.2-48-107.2-105.6v-24h475.2c8 0 12.8 6.4 12.8 16 0 8-4.8 14.4-12.8 14.4zM899.2 17.6v0h-27.2c-4.8 0-9.6-3.2-11.2-6.4s-1.6-6.4-1.6-8c0-9.6 4.8-16 12.8-16h27.2c8 0 12.8 6.4 12.8 16 0 8-6.4 14.4-12.8 14.4zM931.2 833.6h-838.4c-51.2 0-92.8-41.6-92.8-92.8v-504c0-51.2 41.6-92.8 92.8-92.8h836.8c51.2 0 92.8 41.6 92.8 92.8v504c1.6 51.2-40 92.8-91.2 92.8zM108.8 776v0h1.6c0 0 0 0-1.6 0zM145.6 529.6v0c-3.2-1.6-8-3.2-11.2-3.2s-8 1.6-11.2 3.2c-6.4 3.2-9.6 9.6-9.6 17.6l-1.6 228.8h43.2l1.6-228.8c0-8-4.8-14.4-11.2-17.6zM212.8 609.6v0c0 0 0 0 0 0-12.8 0-20.8 9.6-22.4 20.8l-1.6 145.6h43.2c0-48 0-97.6 1.6-145.6 1.6-11.2-8-20.8-20.8-20.8z" />
<glyph unicode="&#xe911;" glyph-name="correct" data-tags="correct" d="M840 803.2v0c-100.8 84.8-233.6 129.6-374.4 116.8-139.2-12.8-260.8-78.4-344-177.6l-3.2-3.2c-84.8-100.8-129.6-233.6-116.8-374.4s80-264 180.8-348.8v0c100.8-83.2 232-129.6 372.8-116.8 139.2 12.8 260.8 80 345.6 177.6l3.2 3.2c84.8 100.8 129.6 233.6 118.4 374.4-12.8 140.8-81.6 264-182.4 348.8zM771.2 520l-241.6-284.8c-16-19.2-44.8-22.4-64-6.4l-1.6 1.6-147.2 121.6c-19.2 16-22.4 44.8-6.4 64s44.8 22.4 64 6.4l113.6-96 212.8 251.2c16 19.2 44.8 20.8 64 4.8 20.8-14.4 22.4-43.2 6.4-62.4z" />
<glyph unicode="&#xe912;" glyph-name="d-arrow-left" data-tags="d-arrow-left" d="M259.2 409.6l294.4 312c16 17.6 19.2 51.2-3.2 73.6-33.6 30.4-73.6 16-89.6-1.6l-329.6-353.6c-16-17.6-16-44.8 0-62.4l329.6-352c16-17.6 51.2-30.4 83.2-3.2 24 20.8 19.2 60.8 3.2 76.8l-288 310.4zM598.4 409.6l294.4 312c16 17.6 19.2 51.2-3.2 73.6-33.6 30.4-73.6 16-89.6-1.6l-329.6-353.6c-16-17.6-16-44.8 0-62.4l329.6-352c16-17.6 51.2-30.4 83.2-3.2 24 20.8 19.2 60.8 3.2 76.8l-288 310.4z" />
<glyph unicode="&#xe913;" glyph-name="d-arrow-right" data-tags="d-arrow-right" d="M764.8 409.6l-294.4 312c-16 17.6-19.2 51.2 3.2 73.6 33.6 30.4 73.6 16 89.6-1.6l329.6-353.6c16-17.6 16-44.8 0-62.4l-329.6-352c-16-17.6-51.2-30.4-83.2-3.2-24 20.8-19.2 60.8-3.2 76.8l288 310.4zM425.6 409.6l-294.4 312c-16 17.6-19.2 51.2 3.2 73.6 33.6 30.4 73.6 16 89.6-1.6l329.6-353.6c16-17.6 16-44.8 0-62.4l-329.6-352c-16-17.6-51.2-30.4-83.2-3.2-24 20.8-19.2 60.8-3.2 76.8l288 310.4z" />
<glyph unicode="&#xe914;" glyph-name="d-caret" data-tags="d-caret" d="M244.8 443.2h536c6.4 0 11.2 3.2 17.6 9.6 9.6 11.2 9.6 30.4 0 43.2l-267.2 323.2c-9.6 11.2-25.6 11.2-33.6 0l-268.8-324.8c-6.4-6.4-9.6-12.8-9.6-22.4 1.6-16 11.2-28.8 25.6-28.8zM780.8 376h-537.6c-12.8 0-25.6-12.8-25.6-28.8 0-9.6 3.2-17.6 9.6-22.4l265.6-324.8c9.6-11.2 25.6-11.2 33.6 0v0l267.2 326.4c9.6 11.2 9.6 30.4 0 43.2-1.6 3.2-6.4 6.4-12.8 6.4z" />
<glyph unicode="&#xe915;" glyph-name="data-chart1" data-tags="data-chart1" d="M985.6 28.8h-910.4v798.4c0 20.8-17.6 38.4-38.4 38.4s-36.8-17.6-36.8-38.4c0 0 0-792 0-822.4s25.6-51.2 44.8-51.2c12.8 0 942.4 0 942.4 0 20.8 0 38.4 17.6 38.4 38.4s-19.2 36.8-40 36.8zM190.4 67.2c20.8 0 38.4 17.6 38.4 38.4v384l212.8 156.8 166.4-364.8h278.4l40-91.2c8-19.2 30.4-27.2 49.6-19.2s27.2 30.4 19.2 49.6l-60.8 136h-278.4l-185.6 404.8-318.4-233.6v-422.4c0-20.8 16-38.4 38.4-38.4z" />
<glyph unicode="&#xe916;" glyph-name="data-chart2" data-tags="data-chart2" d="M180.8 68.8h102.4c19.2 0 33.6 14.4 33.6 32v467.2c0 17.6-16 32-33.6 32h-102.4c-19.2 0-33.6-14.4-33.6-32v-467.2c-1.6-17.6 14.4-32 33.6-32zM377.6 68.8h102.4c19.2 0 33.6 14.4 33.6 32v686.4c0 17.6-16 32-33.6 32h-102.4c-19.2 0-33.6-14.4-33.6-32v-686.4c-1.6-17.6 14.4-32 33.6-32zM584 68.8h104c19.2 0 33.6 14.4 33.6 32v308.8c0 17.6-16 32-33.6 32h-102.4c-19.2 0-33.6-14.4-33.6-32v-308.8c-1.6-17.6 12.8-32 32-32zM790.4 68.8h102.4c19.2 0 33.6 14.4 33.6 32v492.8c0 17.6-16 32-33.6 32h-102.4c-19.2 0-33.6-14.4-33.6-32v-492.8c0-17.6 14.4-32 33.6-32zM985.6 28.8h-910.4v800c0 20.8-17.6 38.4-38.4 38.4s-36.8-17.6-36.8-38.4c0 0 0-793.6 0-824s25.6-51.2 44.8-51.2c12.8 0 942.4 0 942.4 0 20.8 0 38.4 17.6 38.4 38.4s-19.2 36.8-40 36.8z" />
<glyph unicode="&#xe917;" glyph-name="data-chart3" data-tags="data-chart3" d="M985.6 28.8h-910.4v800c0 20.8-17.6 38.4-38.4 38.4s-36.8-17.6-36.8-38.4c0 0 0-793.6 0-824s25.6-51.2 44.8-51.2c12.8 0 942.4 0 942.4 0 20.8 0 38.4 17.6 38.4 38.4s-19.2 36.8-40 36.8zM251.2 193.6c54.4 0 99.2 44.8 99.2 99.2 0 19.2-4.8 36.8-14.4 52.8l80 89.6c11.2-3.2 22.4-6.4 33.6-6.4 9.6 0 17.6 1.6 25.6 3.2l94.4-134.4c-14.4-17.6-22.4-38.4-22.4-62.4 0-54.4 44.8-99.2 99.2-99.2s99.2 44.8 99.2 99.2c0 28.8-12.8 54.4-32 72l116.8 246.4c3.2 0 8 0 11.2 0 54.4 0 99.2 44.8 99.2 99.2s-44.8 99.2-99.2 99.2c-54.4 0-99.2-44.8-99.2-99.2 0-28.8 12.8-54.4 32-72l-118.4-248c-3.2 0-8 0-11.2 0-9.6 0-19.2-1.6-27.2-3.2l-92.8 134.4c14.4 17.6 22.4 38.4 22.4 62.4 0 54.4-44.8 99.2-99.2 99.2s-99.2-44.8-99.2-99.2c0-19.2 4.8-36.8 14.4-51.2l-75.2-91.2c-11.2 4.8-24 6.4-36.8 6.4-54.4 0-99.2-44.8-99.2-99.2 1.6-52.8 44.8-97.6 99.2-97.6z" />
<glyph unicode="&#xe918;" glyph-name="data-chart4" data-tags="data-chart4" d="M1011.2 592c-22.4 65.6-60.8 128-108.8 177.6-163.2 171.2-427.2 200-627.2 75.2l270.4-403.2 465.6 150.4zM185.6 868.8c-24-16-46.4-32-65.6-51.2-52.8-48-92.8-107.2-118.4-172.8l457.6-177.6-273.6 401.6zM998.4 524.8l-467.2-147.2-457.6 176c-70.4-172.8-32-369.6 99.2-504 187.2-193.6 497.6-204.8 696-22.4 139.2 126.4 190.4 321.6 129.6 497.6v0z" />
<glyph unicode="&#xe919;" glyph-name="database" data-tags="database" d="M113.6 721.6c27.2-59.2 97.6-88 156.8-107.2 62.4-19.2 126.4-28.8 190.4-32 115.2-6.4 244.8 4.8 352 56 51.2 24 121.6 73.6 97.6 139.2-20.8 59.2-97.6 91.2-152 108.8-113.6 35.2-241.6 43.2-360 28.8-67.2-9.6-137.6-24-200-56-44.8-24-113.6-76.8-84.8-137.6 19.2-41.6-1.6 3.2 0 0zM115.2 374.4c38.4-84.8 168-113.6 248-126.4 84.8-14.4 171.2-16 256-6.4 91.2 11.2 214.4 33.6 273.6 108.8 33.6 41.6 20.8 104 20.8 153.6 0 28.8 0 59.2 0 88 0 8-4.8 64-1.6 68.8-6.4-8-9.6-20.8-19.2-30.4-14.4-12.8-33.6-24-49.6-32-35.2-19.2-75.2-30.4-113.6-40-73.6-19.2-150.4-28.8-225.6-27.2-72 1.6-144 9.6-214.4 27.2-35.2 9.6-70.4 20.8-102.4 35.2-17.6 8-35.2 17.6-51.2 30.4-6.4 4.8-14.4 9.6-19.2 17.6-1.6 3.2-9.6 19.2-9.6 20.8 0-51.2 0-104 0-155.2 1.6-112-1.6-107.2 8-132.8 3.2-8-3.2 4.8 0 0zM915.2 256c0 9.6-6.4 62.4-1.6 68.8-6.4-8-9.6-20.8-19.2-30.4-14.4-12.8-33.6-24-49.6-32-36.8-17.6-75.2-30.4-113.6-40-73.6-19.2-150.4-28.8-225.6-27.2-72 1.6-144 9.6-214.4 27.2-35.2 8-70.4 20.8-102.4 35.2-17.6 8-35.2 17.6-51.2 30.4-6.4 4.8-14.4 9.6-19.2 17.6-3.2 3.2-8 19.2-9.6 20.8 0-54.4 0-107.2 0-161.6 0-43.2-11.2-100.8 12.8-139.2 43.2-68.8 142.4-94.4 216-108.8 80-16 164.8-20.8 246.4-14.4 84.8 6.4 177.6 22.4 252.8 65.6 38.4 22.4 75.2 54.4 78.4 100.8 4.8 60.8 0 124.8 0 187.2z" />
<glyph unicode="&#xe91a;" glyph-name="delete" data-tags="delete" d="M897.6 665.6c0-16 0-30.4 0-44.8 0-195.2 0-390.4 0-585.6 0-35.2-8-65.6-28.8-94.4-17.6-22.4-38.4-38.4-67.2-41.6-3.2 0-6.4 0-11.2 0-184 0-368 0-552 0-35.2 0-60.8 14.4-81.6 41.6-22.4 28.8-30.4 60.8-30.4 96 0 208 0 416 0 624 0 1.6 0 3.2 0 6.4-3.2 0-4.8 0-8 0-17.6 0-36.8 0-54.4 0-16 0-24 8-24 24 0 11.2 0 24 0 35.2 0 17.6 8 25.6 24 25.6 65.6 0 131.2 0 195.2 0 6.4 0 8 1.6 9.6 6.4 12.8 32 27.2 65.6 40 97.6 14.4 35.2 40 56 75.2 64 11.2 1.6 17.6 1.6 25.6 1.6 68.8 0 136 0 204.8 0 41.6 0 78.4-24 96-64 14.4-33.6 28.8-67.2 41.6-100.8 1.6-4.8 4.8-6.4 9.6-6.4 65.6 0 129.6 0 195.2 0 19.2 0 25.6-6.4 25.6-25.6 0-11.2 0-24 0-35.2 0-14.4-8-22.4-22.4-22.4-17.6 0-36.8 0-54.4 0-3.2-1.6-4.8-1.6-8-1.6zM726.4 324.8c0 78.4 0 155.2 0 233.6 0 12.8-8 22.4-22.4 22.4s-27.2 0-41.6 0c-14.4 0-22.4-8-22.4-22.4 0-155.2 0-310.4 0-465.6 0-14.4 8-22.4 22.4-22.4 12.8 0 25.6 0 40 0 16 0 24 8 24 24 0 75.2 0 152 0 230.4zM384 324.8c0 76.8 0 155.2 0 232 0 16-8 24-24 24-12.8 0-25.6 0-38.4 0-16 0-24-8-24-24 0-155.2 0-310.4 0-464 0-16 8-24 24-24 12.8 0 24 0 36.8 0 17.6 0 25.6 8 25.6 25.6 0 76.8 0 153.6 0 230.4zM468.8 324.8c0-76.8 0-155.2 0-232 0-16 8-24 24-24 11.2 0 22.4 0 35.2 0 19.2 0 27.2 6.4 27.2 27.2 0 57.6 0 115.2 0 172.8 0 96 0 192 0 288 0 17.6-8 24-25.6 24-12.8 0-24 0-36.8 0-16 0-24-8-24-24 0-78.4 0-155.2 0-232zM660.8 752c0 1.6 0 1.6 0 3.2-9.6 22.4-20.8 48-30.4 72-3.2 6.4-8 9.6-16 9.6-68.8 0-136 0-204.8 0-8 0-14.4-3.2-17.6-11.2-4.8-11.2-9.6-22.4-14.4-33.6-4.8-14.4-9.6-27.2-16-40 100.8 0 200 0 299.2 0z" />
<glyph unicode="&#xe91b;" glyph-name="download" data-tags="download" d="M92.8 505.6c-6.4 6.4-9.6 17.6-4.8 27.2 3.2 9.6 12.8 16 22.4 16h204.8v337.6c0 14.4 11.2 25.6 25.6 25.6h340.8c6.4 0 12.8-3.2 17.6-8s8-11.2 8-17.6v-337.6h204.8c6.4 0 12.8-3.2 17.6-8 1.6-1.6 4.8-4.8 4.8-8 3.2-9.6 1.6-20.8-4.8-27.2l-400-400c-9.6-9.6-25.6-9.6-35.2 0l-401.6 400zM920 281.6l-1.6-273.6h-812.8l1.6 273.6h-107.2v-289.6c0-46.4 36.8-83.2 83.2-83.2h856c46.4 0 83.2 36.8 83.2 83.2v289.6h-102.4z" />
<glyph unicode="&#xe91c;" glyph-name="edit" data-tags="edit" d="M512 212.8l64 60.8-89.6 86.4-64-60.8v-30.4h57.6v-56h32zM761.6 612.8c-6.4 6.4-12.8 6.4-19.2 0l-198.4-196.8c-6.4-6.4-6.4-12.8 0-19.2s12.8-6.4 19.2 0l198.4 190.4c6.4 12.8 6.4 19.2 0 25.6v0zM806.4 286.4v-104c-3.2-46.4-12.8-83.2-44.8-115.2-32-30.4-76.8-44.8-121.6-44.8h-473.6c-72 0-171.2 51.2-166.4 160v454.4c0 43.2 11.2 88 43.2 118.4s78.4 41.6 123.2 41.6h456c25.6 0 62.4 0 75.2-9.6 25.6-17.6-11.2-46.4-22.4-83.2-6.4-20.8-46.4-12.8-62.4-9.6-60.8 9.6-441.6 0-441.6 0-25.6 0-72-3.2-70.4-78.4l-4.8-427.2c3.2-51.2 49.6-67.2 75.2-67.2l454.4-3.2c72 0 86.4 36.8 86.4 83.2v49.6c0 6.4 0 12.8 9.6 17.6l52.8 30.4c11.2 6.4 12.8 8 19.2 6.4 8-1.6 12.8-12.8 12.8-19.2v0zM755.2 692.8l166.4-160-384-369.6h-172.8v160l390.4 369.6zM1004.8 619.2l-51.2-49.6-166.4 160 51.2 49.6c12.8 12.8 25.6 19.2 38.4 19.2s25.6-6.4 38.4-19.2l89.6-86.4c12.8-12.8 19.2-24 19.2-36.8s-6.4-25.6-19.2-36.8v0z" />
<glyph unicode="&#xe91d;" glyph-name="email" data-tags="email" d="M534.4 412.8l432 371.2h-944l432-371.2c22.4-19.2 57.6-19.2 80 0zM1017.6 748.8l-473.6-396.8c-25.6-22.4-70.4-22.4-96 0l-448 374.4v-588.8c0-105.6 86.4-102.4 192-102.4h640c105.6 0 192-3.2 192 102.4v582.4c0 9.6-3.2 19.2-6.4 28.8z" />
<glyph unicode="&#xe91e;" glyph-name="empower" data-tags="empower" d="M960 705.6c-145.6 80-304 137.6-451.2 216-145.6-83.2-304-142.4-446.4-228.8-17.6-316.8 164.8-638.4 459.2-795.2 289.6 164.8 467.2 491.2 438.4 808zM768 536l-241.6-244.8c-16-16-41.6-17.6-59.2 0l-1.6 1.6-126.4 123.2c-16 16-16 41.6-1.6 59.2 16 16 41.6 16 59.2 1.6l97.6-96 212.8 214.4c16 16 41.6 16 59.2 0 17.6-17.6 17.6-43.2 1.6-59.2z" />
<glyph unicode="&#xe91f;" glyph-name="enlarge" data-tags="enlarge" d="M995.2 62.4l-169.6 169.6c44.8 70.4 72 152 72 241.6 0 248-201.6 448-448 448-248 0-449.6-201.6-449.6-448 0-248 201.6-448 448-448 89.6 0 171.2 27.2 241.6 72l169.6-169.6c36.8-36.8 99.2-36.8 136 0 38.4 35.2 38.4 96 0 134.4zM448 152c-177.6 0-320 144-320 320s144 321.6 320 321.6c177.6 0 320-144 320-320s-142.4-321.6-320-321.6zM604.8 537.6h-108.8v100.8c0 25.6-20.8 48-46.4 48s-46.4-22.4-46.4-48v-100.8h-108.8c-25.6 0-46.4-20.8-46.4-48s20.8-48 46.4-48h108.8v-112c0-25.6 20.8-48 46.4-48s46.4 20.8 46.4 48v112h108.8c25.6 0 46.4 20.8 46.4 48s-20.8 48-46.4 48z" />
<glyph unicode="&#xe920;" glyph-name="error" data-tags="error" d="M873.6 771.2v0c-92.8 94.4-220.8 150.4-363.2 150.4-139.2 0-265.6-56-358.4-147.2l-3.2-3.2c-92.8-91.2-148.8-220.8-148.8-361.6 0-142.4 56-270.4 148.8-363.2v0c92.8-92.8 220.8-150.4 361.6-150.4 139.2 0 267.2 56 360 147.2l3.2 3.2c92.8 94.4 150.4 222.4 150.4 363.2s-57.6 270.4-150.4 361.6zM712 289.6c20.8-20.8 20.8-54.4 0-75.2s-54.4-20.8-75.2 0l-124.8 126.4-124.8-124.8c-20.8-20.8-54.4-20.8-75.2 0s-20.8 54.4 0 75.2l124.8 124.8-124.8 124.8c-20.8 20.8-20.8 54.4 0 75.2s54.4 20.8 75.2 0l124.8-126.4 124.8 124.8c20.8 20.8 54.4 20.8 75.2 0s20.8-54.4 0-75.2l-124.8-124.8 124.8-124.8z" />
<glyph unicode="&#xe921;" glyph-name="export" data-tags="export" d="M889.6 345.6v-209.6c0-75.2-33.6-99.2-108.8-99.2h-545.6c-75.2 0-102.4 36.8-102.4 112l3.2 532.8c0 75.2 24 108.8 99.2 108.8h68.8l3.2 131.2h-102.4c-113.6 0-204.8-91.2-204.8-204.8v-614.4c0-113.6 91.2-204.8 204.8-204.8h614.4c113.6 0 204.8 91.2 204.8 204.8v243.2h-134.4zM323.2 497.6c88-108.8 372.8-156.8 521.6 81.6l131.2-68.8c24-12.8 38.4 1.6 32 30.4l-72 345.6c-6.4 28.8-33.6 43.2-60.8 32l-328-136c-27.2-11.2-30.4-30.4-6.4-43.2l150.4-78.4c-25.6-56-134.4-232-368-163.2z" />
<glyph unicode="&#xe922;" glyph-name="flow" data-tags="flow" d="M969.6 264h-57.6v91.2c0 44.8-36.8 81.6-81.6 81.6h-292.8v120h59.2c30.4 0 54.4 24 54.4 54.4v168c0 30.4-24 54.4-54.4 54.4h-169.6c-30.4 0-54.4-24-54.4-54.4v-169.6c0-30.4 24-54.4 54.4-54.4h54.4v-120h-288c-44.8 0-81.6-36.8-81.6-81.6v-91.2h-57.6c-30.4 0-54.4-24-54.4-54.4v-169.6c0-30.4 24-54.4 54.4-54.4h169.6c30.4 0 54.4 24 54.4 54.4v169.6c0 30.4-24 54.4-54.4 54.4h-56v91.2c0 14.4 12.8 27.2 27.2 27.2h288v-118.4h-54.4c-30.4 0-54.4-24-54.4-54.4v-169.6c0-30.4 24-54.4 54.4-54.4h168c30.4 0 54.4 24 54.4 54.4v169.6c0 30.4-24 54.4-54.4 54.4h-59.2v118.4h291.2c14.4 0 27.2-12.8 27.2-27.2v-91.2h-56c-30.4 0-54.4-24-54.4-54.4v-169.6c0-30.4 24-54.4 54.4-54.4h168c30.4 0 54.4 24 54.4 54.4v169.6c1.6 30.4-22.4 56-52.8 56v0z" />
<glyph unicode="&#xe923;" glyph-name="folder-open" data-tags="folder-open" d="M960 556.8h-736c-35.2 0-64-28.8-64-64l-112-528h800c35.2 0 64 28.8 64 64l112 464c0 35.2-28.8 64-64 64zM176 604.8h720v62.4c0 35.2-28.8 64-64 64h-384v59.2c0 35.2-28.8 64-64 64h-320c-35.2 0-64-28.8-64-64v-761.6l112 512c0 35.2 28.8 64 64 64z" />
<glyph unicode="&#xe924;" glyph-name="folder" data-tags="folder" d="M950.4-28.8h-876.8c-20.8 0-38.4 8-51.2 20.8s-22.4 32-22.4 51.2v732.8c0 40 32 73.6 73.6 73.6h366.4c17.6 0 32-6.4 44.8-17.6 57.6-38.4 116.8-129.6 174.4-129.6h292.8c40 0 73.6-32 73.6-73.6v-585.6c-1.6-40-33.6-72-75.2-72z" />
<glyph unicode="&#xe925;" glyph-name="forbidden" data-tags="forbidden" d="M512 921.6c70.4 0 136-12.8 198.4-40s116.8-64 163.2-110.4c46.4-46.4 83.2-100.8 108.8-163.2 27.2-62.4 40-128 40-198.4s-12.8-137.6-40-200c-27.2-62.4-64-116.8-108.8-163.2-46.4-46.4-100.8-83.2-163.2-108.8s-128-40-198.4-40c-70.4 0-137.6 12.8-200 40s-116.8 62.4-163.2 108.8c-46.4 46.4-83.2 100.8-108.8 163.2s-40 129.6-40 200c0 70.4 12.8 136 40 198.4s62.4 116.8 108.8 163.2 100.8 83.2 163.2 110.4 129.6 40 200 40zM508.8 780.8c-51.2 0-99.2-9.6-142.4-28.8s-83.2-44.8-116.8-78.4c-33.6-33.6-59.2-72-78.4-116.8s-28.8-92.8-28.8-142.4c0-38.4 4.8-75.2 16-108.8s27.2-65.6 46.4-96l508.8 507.2c-30.4 20.8-62.4 36.8-96 48s-70.4 16-108.8 16v0zM508.8 48c49.6 0 97.6 9.6 142.4 28.8s83.2 44.8 116.8 78.4c33.6 33.6 59.2 72 78.4 116.8s28.8 92.8 28.8 142.4c0 72-19.2 139.2-57.6 198.4l-508.8-507.2c30.4-19.2 60.8-33.6 94.4-43.2 32-9.6 67.2-14.4 105.6-14.4z" />
<glyph unicode="&#xe926;" glyph-name="group" data-tags="group" d="M740.8 73.6v-35.2h-740.8v35.2c0 128 284.8 100.8 284.8 224 0 11.2 0 22.4 0 35.2-14.4 14.4-44.8 52.8-57.6 105.6-12.8 6.4-22.4 17.6-30.4 35.2-9.6 24-9.6 59.2 8 81.6 0 0 0 0 0 1.6-3.2 30.4-12.8 113.6 36.8 166.4 28.8 30.4 72 56 126.4 57.6 56-1.6 99.2-25.6 126.4-57.6 49.6-54.4 40-136 36.8-166.4 0 0 0 0 0-1.6 17.6-22.4 17.6-56 8-81.6-6.4-17.6-17.6-30.4-30.4-35.2-12.8-52.8-43.2-91.2-57.6-105.6 0-12.8 0-25.6 0-36.8 3.2-121.6 289.6-94.4 289.6-222.4v0 0zM1024 142.4v-25.6h-217.6c0 0-28.8 48-83.2 75.2-62.4 30.4-150.4 38.4-115.2 52.8 38.4 16 68.8 35.2 68.8 70.4 0 8 0 17.6 0 27.2-9.6 11.2-33.6 40-43.2 80-9.6 4.8-17.6 14.4-22.4 27.2-6.4 19.2-8 44.8 6.4 60.8 0 0 0 0 0 1.6-3.2 24-9.6 86.4 28.8 128 22.4 24 54.4 41.6 96 43.2 43.2-1.6 75.2-19.2 96-43.2 38.4-41.6 30.4-104 28.8-128 0 0 0 0 0-1.6 14.4-17.6 12.8-43.2 6.4-60.8-4.8-12.8-12.8-22.4-22.4-27.2-9.6-40-33.6-68.8-43.2-80 0-9.6 0-19.2 0-28.8-1.6-94.4 216-73.6 216-171.2v0 0z" />
<glyph unicode="&#xe927;" glyph-name="heart-on" data-tags="heart-on" d="M952 772.8c-48 46.4-115.2 70.4-200 70.4-24 0-48-4.8-72-12.8s-48-19.2-68.8-33.6c-20.8-14.4-40-27.2-54.4-38.4-16-12.8-28.8-25.6-43.2-38.4-14.4 14.4-28.8 27.2-43.2 38.4-16 12.8-33.6 25.6-54.4 38.4-20.8 14.4-43.2 25.6-68.8 33.6-24 8-48 12.8-72 12.8-84.8 0-152-24-200-70.4s-72-112-72-196.8c0-25.6 4.8-51.2 12.8-78.4 9.6-27.2 19.2-49.6 30.4-68.8s24-36.8 38.4-56c14.4-17.6 25.6-30.4 32-36.8s11.2-11.2 16-14.4l356.8-344c6.4-6.4 16-11.2 25.6-11.2s17.6 3.2 25.6 11.2l356.8 342.4c88 88 131.2 172.8 131.2 257.6-4.8 81.6-28.8 147.2-76.8 195.2z" />
<glyph unicode="&#xe928;" glyph-name="help" data-tags="help" d="M873.6 771.2v0c-92.8 94.4-220.8 150.4-363.2 150.4-139.2 0-265.6-56-358.4-147.2l-3.2-3.2c-92.8-91.2-148.8-220.8-148.8-361.6 0-142.4 56-270.4 148.8-363.2v0c92.8-92.8 220.8-150.4 361.6-150.4 139.2 0 267.2 56 360 147.2l3.2 3.2c92.8 94.4 150.4 222.4 150.4 363.2s-57.6 270.4-150.4 361.6zM561.6 145.6c-8-9.6-22.4-14.4-35.2-14.4-14.4 0-27.2 6.4-35.2 14.4-9.6 9.6-14.4 22.4-14.4 35.2 0 14.4 6.4 27.2 14.4 35.2 8 9.6 20.8 14.4 35.2 14.4s27.2-6.4 35.2-14.4c9.6-9.6 14.4-22.4 14.4-35.2 1.6-12.8-4.8-25.6-14.4-35.2zM673.6 499.2c-3.2-12.8-6.4-22.4-11.2-32-6.4-11.2-12.8-20.8-20.8-28.8s-16-16-25.6-24c-9.6-8-19.2-16-27.2-30.4s-12.8-33.6-12.8-62.4c0-14.4-6.4-27.2-14.4-35.2-8-9.6-22.4-14.4-35.2-14.4-14.4 0-27.2 4.8-35.2 14.4-9.6 9.6-14.4 22.4-14.4 35.2 0 52.8 9.6 88 24 112 14.4 25.6 32 41.6 51.2 57.6 6.4 6.4 12.8 11.2 17.6 17.6 12.8 20.8 9.6 49.6-6.4 65.6-8 9.6-20.8 14.4-35.2 14.4-6.4 0-12.8-1.6-19.2-4.8s-11.2-6.4-16-11.2c-4.8-4.8-8-9.6-11.2-16s-3.2-12.8-3.2-19.2c0-14.4-6.4-27.2-16-35.2s-22.4-14.4-35.2-14.4c-14.4 0-27.2 6.4-35.2 14.4-8 9.6-14.4 22.4-14.4 35.2 0 20.8 3.2 40 11.2 59.2 8 17.6 19.2 35.2 32 48 14.4 14.4 30.4 24 48 32s38.4 11.2 59.2 11.2c27.2 0 52.8-6.4 73.6-19.2 22.4-12.8 41.6-30.4 54.4-52.8 6.4-11.2 12.8-24 16-36.8 8-22.4 8-52.8 1.6-80z" />
<glyph unicode="&#xe929;" glyph-name="home" data-tags="home" d="M1024 385.6c0-27.2-20.8-48-48-48-12.8 0-24 4.8-32 12.8v0l-432 432-430.4-430.4c-8-8-20.8-14.4-33.6-14.4-27.2 0-48 20.8-48 48 0 12.8 6.4 25.6 14.4 35.2l462.4 462.4c8 9.6 20.8 14.4 35.2 14.4v0 0 0c1.6 0 1.6 0 3.2 0 0 0 0 0 0 0s1.6 0 1.6 0c0 0 0 0 0 0 11.2-1.6 22.4-6.4 30.4-14.4v0l188.8-190.4v44.8c0 27.2 20.8 48 48 48s48-20.8 48-48v-140.8l179.2-179.2c8-8 12.8-19.2 12.8-32zM928 305.6v-336c0-27.2-20.8-48-48-48h-96v384h-192v-384h-448c-27.2 0-48 20.8-48 48v336l416 416 416-416zM432 305.6h-192v-192h192v192z" />
<glyph unicode="&#xe92a;" glyph-name="image" data-tags="image" d="M1024 86.4c0-48-38.4-84.8-84.8-84.8h-854.4c-48 0-84.8 38.4-84.8 84.8v648c0 48 38.4 84.8 84.8 84.8h852.8c46.4 0 84.8-38.4 84.8-84.8l1.6-648zM84.8 752c-9.6 0-17.6-8-17.6-17.6v-648c0-9.6 8-17.6 17.6-17.6h852.8c9.6 0 17.6 8 17.6 17.6v648c0 9.6-8 17.6-17.6 17.6h-852.8zM238.4 478.4c-56 0-102.4 44.8-102.4 102.4 0 56 44.8 102.4 102.4 102.4 56 0 102.4-44.8 102.4-102.4s-44.8-102.4-102.4-102.4v0zM886.4 136h-748.8v102.4l171.2 171.2 84.8-84.8 273.6 272 222.4-222.4-3.2-238.4z" />
<glyph unicode="&#xe92b;" glyph-name="import" data-tags="import" d="M419.2 390.4c6.4-27.2 33.6-43.2 59.2-33.6l323.2 107.2c27.2 9.6 30.4 27.2 6.4 40l-147.2 84.8c25.6 49.6 134.4 209.6 363.2 128-86.4 107.2-366.4 172.8-515.2-41.6l-129.6 73.6c-24 12.8-36.8 1.6-32-25.6l72-332.8zM884.8 137.6c0-75.2-32-97.6-107.2-97.6h-544c-75.2 0-102.4 35.2-102.4 110.4l4.8 529.6c0 75.2 24 108.8 99.2 108.8h67.2l3.2 131.2h-102.4c-112-1.6-203.2-92.8-203.2-204.8v-611.2c0-112 91.2-203.2 203.2-203.2h611.2c112 0 203.2 91.2 203.2 203.2v241.6h-134.4v-208z" />
<glyph unicode="&#xe92c;" glyph-name="lock" data-tags="lock" d="M832-102.4h-640c-35.2 0-64 28.8-64 64v544c0 35.2 28.8 64 64 64h96v128c0 123.2 100.8 224 224 224s224-100.8 224-224v-128h96c35.2 0 64-28.8 64-64v-544c0-35.2-28.8-64-64-64zM480 224v-134.4h64v134.4c36.8 12.8 64 48 64 89.6 0 52.8-43.2 96-96 96s-96-43.2-96-96c0-41.6 27.2-76.8 64-89.6zM640 697.6c0 70.4-57.6 128-128 128s-128-57.6-128-128v-128h256v128z" />
<glyph unicode="&#xe92d;" glyph-name="main-unit" data-tags="main-unit" d="M841.6 921.6h-659.2c-22.4 0-36.8-14.4-36.8-36.8v-950.4c0-22.4 14.4-36.8 36.8-36.8h657.6c22.4 0 36.8 14.4 36.8 36.8v950.4c1.6 22.4-14.4 36.8-35.2 36.8zM548.8 299.2c-22.4 0-36.8 14.4-36.8 36.8s14.4 36.8 36.8 36.8 36.8-14.4 36.8-36.8-14.4-36.8-36.8-36.8zM731.2 264c-43.2 0-73.6 28.8-73.6 73.6s30.4 72 73.6 72 73.6-28.8 73.6-73.6-28.8-72-73.6-72zM804.8 483.2h-585.6v145.6h585.6v-145.6zM804.8 702.4h-585.6v145.6h585.6v-145.6z" />
<glyph unicode="&#xe92e;" glyph-name="menu-card" data-tags="menu-card" d="M403.2 920c-54.4 0-108.8 0-163.2 0-56 0-113.6 0-169.6 0-46.4 0-70.4-19.2-70.4-67.2 0-112 0-222.4 0-334.4 0-44.8 22.4-67.2 65.6-67.2 113.6 0 227.2-1.6 340.8 0 40 0 62.4 20.8 64 62.4 0 113.6 0 227.2 0 340.8-1.6 43.2-22.4 65.6-67.2 65.6zM953.6 920c-52.8 0-270.4-1.6-328-1.6-51.2 1.6-72-24-72-73.6 0-107.2 0-214.4 0-321.6 0-49.6 20.8-75.2 72-75.2 108.8 0 219.2 0 328 0 46.4 0 70.4 20.8 70.4 68.8 0 112 0 222.4 0 334.4 0 49.6-24 70.4-70.4 68.8zM393.6 366.4c-54.4-1.6-108.8 0-164.8 0-52.8 0-105.6-1.6-158.4 0-46.4 1.6-70.4-19.2-70.4-67.2 0-112 0-222.4 0-334.4 0-43.2 19.2-65.6 65.6-65.6 112 0 222.4 1.6 334.4 0 48 0 68.8 24 68.8 70.4 0 108.8 0 219.2 0 328 1.6 51.2-25.6 70.4-75.2 68.8zM956.8 366.4c-110.4 0-222.4 0-334.4 0-46.4 0-70.4-24-70.4-68.8 0-112 0-222.4 0-334.4 0-43.2 22.4-65.6 67.2-65.6 113.6 0 227.2 0 340.8 0 41.6 0 62.4 20.8 60.8 62.4 0 56 0 113.6 0 169.6s0 113.6 0 169.6c1.6 46.4-19.2 67.2-64 67.2zM1024 852.8c0 48-24 68.8-70.4 67.2-51.2 0-270.4-1.6-328-1.6z" />
<glyph unicode="&#xe92f;" glyph-name="menu-list" data-tags="menu-list" d="M950.4 905.6h-876.8c-41.6 0-73.6-33.6-73.6-73.6v-36.8c0-40 32-73.6 73.6-73.6h878.4c40 0 73.6 33.6 73.6 73.6v36.8c-1.6 40-33.6 73.6-75.2 73.6zM950.4 500.8h-876.8c-41.6 0-73.6-32-73.6-73.6v-36.8c0-40 32-73.6 73.6-73.6h878.4c40 0 73.6 33.6 73.6 73.6v36.8c-1.6 41.6-33.6 73.6-75.2 73.6zM950.4 97.6h-876.8c-41.6 0-73.6-33.6-73.6-73.6v-36.8c0-40 32-73.6 73.6-73.6h878.4c40 0 73.6 33.6 73.6 73.6v36.8c-1.6 40-33.6 73.6-75.2 73.6z" />
<glyph unicode="&#xe930;" glyph-name="minus" data-tags="minus" d="M873.6 771.2v0c-92.8 94.4-220.8 150.4-363.2 150.4-139.2 0-265.6-56-358.4-147.2l-3.2-3.2c-92.8-91.2-148.8-220.8-148.8-361.6 0-142.4 56-270.4 148.8-363.2v0c92.8-92.8 220.8-150.4 361.6-150.4 139.2 0 267.2 56 360 147.2l3.2 3.2c92.8 94.4 150.4 222.4 150.4 363.2s-57.6 270.4-150.4 361.6zM752 379.2c-8-8-20.8-14.4-33.6-14.4-177.6 0-180.8 0-198.4 0-16 0-33.6 0-212.8 0-12.8 0-25.6 4.8-35.2 14.4-8 9.6-14.4 20.8-14.4 35.2 0 12.8 4.8 25.6 14.4 33.6s20.8 14.4 35.2 14.4c177.6 0 195.2 0 212.8 0s20.8 0 198.4 0c12.8 0 25.6-4.8 33.6-14.4 9.6-9.6 14.4-20.8 14.4-33.6s-6.4-24-14.4-35.2z" />
<glyph unicode="&#xe931;" glyph-name="move-to" data-tags="move-to" d="M929.6 732.8h-472c-51.2 0-94.4-41.6-94.4-91.2v-89.6h-248c0-1.6-115.2 1.6-115.2-108.8 0-92.8 0-436.8 0-436.8 0-56 51.2-102.4 115.2-102.4h617.6c64 0 115.2 46.4 115.2 102.4v192h81.6c51.2 0 94.4 41.6 94.4 91.2v350.4c0 51.2-41.6 92.8-94.4 92.8zM915.2 307.2h-67.2v142.4c0 56-51.2 102.4-115.2 102.4h-260.8v72h443.2v-316.8zM200 704l1.6-104c0-16 11.2-20.8 25.6-8l164.8 139.2c14.4 11.2 12.8 30.4 0 41.6v0l-168 136c-14.4 11.2-25.6 8-25.6-9.6v-89.6c-169.6-14.4-222.4-182.4-188.8-260.8 27.2 145.6 153.6 155.2 190.4 155.2z" />
<glyph unicode="&#xe932;" glyph-name="move" data-tags="move" d="M1017.6 424l-145.6 145.6c-12.8 12.8-33.6 3.2-33.6-14.4v-84.8l-265.6 1.6v264h84.8c17.6 0 27.2 20.8 14.4 33.6l-145.6 145.6c-8 8-20.8 8-28.8 0l-145.6-145.6c-12.8-12.8-3.2-33.6 14.4-33.6h84.8l-1.6-265.6-264 1.6v83.2c0 17.6-20.8 27.2-33.6 14.4l-145.6-145.6c-8-8-8-20.8 0-28.8l145.6-145.6c12.8-12.8 33.6-3.2 33.6 14.4l1.6 84.8 262.4-4.8v-260.8h-83.2c-17.6 0-27.2-20.8-14.4-33.6l145.6-145.6c8-8 20.8-8 28.8 0l145.6 145.6c12.8 12.8 3.2 33.6-14.4 33.6l-84.8 1.6v259.2l265.6 1.6v-80c0-17.6 20.8-27.2 33.6-14.4l145.6 145.6c8 6.4 8 19.2 0 27.2z" />
<glyph unicode="&#xe933;" glyph-name="plus" data-tags="plus" d="M510.4 923.2c140.8 0 270.4-56 361.6-150.4v0c92.8-92.8 150.4-220.8 150.4-361.6 0-142.4-57.6-270.4-150.4-363.2l-3.2-3.2c-92.8-91.2-219.2-147.2-360-147.2s-268.8 57.6-361.6 150.4v0 0c-91.2 94.4-147.2 222.4-147.2 363.2s56 268.8 148.8 361.6l3.2 3.2c92.8 91.2 219.2 147.2 358.4 147.2v0zM459.2 638.4v0-174.4h-174.4c-28.8 0-52.8-24-52.8-51.2 0-30.4 24-52.8 52.8-52.8h174.4v-174.4c0-28.8 24-52.8 51.2-52.8 28.8 0 52.8 24 52.8 52.8v172.8h174.4c28.8 0 51.2 22.4 51.2 52.8 0 28.8-22.4 51.2-51.2 51.2h-174.4v176c0 28.8-24 51.2-52.8 51.2-27.2 0-51.2-22.4-51.2-51.2v0z" />
<glyph unicode="&#xe934;" glyph-name="position" data-tags="position" d="M512 921.6c-225.6 0-408-179.2-408-398.4 0-220.8 342.4-625.6 408-625.6 64 0 408 404.8 408 625.6 0 219.2-182.4 398.4-408 398.4v0zM512 257.6c-150.4 0-272 118.4-272 265.6s121.6 265.6 272 265.6 272-118.4 272-265.6c0-147.2-121.6-265.6-272-265.6v0zM512 656c75.2 0 136-59.2 136-132.8s-60.8-132.8-136-132.8c-75.2 0-136 59.2-136 132.8s60.8 132.8 136 132.8v0z" />
<glyph unicode="&#xe935;" glyph-name="recommit" data-tags="recommit" d="M512 921.6c-142.4 0-272-59.2-364.8-153.6l-65.6 64c-12.8 11.2-24 4.8-24-16l-17.6-188.8c0-20.8 14.4-35.2 33.6-32l198.4 16c17.6 3.2 22.4 16 9.6 28.8l-64 62.4c75.2 73.6 180.8 123.2 294.4 123.2 230.4 0 416-185.6 416-416s-185.6-416-416-416-416 185.6-416 416c0 25.6-22.4 48-48 48s-48-22.4-48-48c0-281.6 230.4-512 512-512s512 233.6 512 512c0 281.6-230.4 512-512 512zM377.6 168h171.2l48 52.8-17.6 35.2 46.4 40 1.6 41.6 25.6-54.4-33.6-28.8 36.8-43.2-28.8-41.6h41.6c22.4 0 41.6 19.2 41.6 41.6v336l-89.6 89.6h-243.2c-22.4 0-41.6-19.2-41.6-41.6v-169.6c0 0 0-217.6 0-217.6 0-22.4 19.2-40 41.6-40zM620.8 611.2l65.6-65.6h-65.6v65.6zM417.6 500.8h212.8c11.2 0 20.8-9.6 20.8-20.8s-9.6-20.8-20.8-20.8h-212.8c-11.2 0-20.8 9.6-20.8 20.8s9.6 20.8 20.8 20.8zM417.6 409.6h128c11.2 0 20.8-9.6 20.8-20.8s-9.6-20.8-20.8-20.8h-128c-11.2 0-20.8 9.6-20.8 20.8s9.6 20.8 20.8 20.8z" />
<glyph unicode="&#xe936;" glyph-name="reduce" data-tags="reduce" d="M995.2-73.6c-36.8-36.8-99.2-36.8-136 0l-169.6 169.6c-70.4-44.8-152-72-241.6-72-248 0-448 201.6-448 448s201.6 449.6 448 449.6c248 0 448-201.6 448-448 0-89.6-27.2-171.2-72-241.6l169.6-169.6c40-38.4 40-99.2 1.6-136zM448 793.6c-176 0-320-144-320-320s144-320 320-320c177.6 0 320 144 320 320s-142.4 320-320 320zM294.4 505.6c-25.6 0-48-22.4-48-48s22.4-48 48-48h307.2c25.6 0 48 22.4 48 48s-19.2 48-48 48h-307.2z" />
<glyph unicode="&#xe937;" glyph-name="refresh" data-tags="refresh" d="M763.2 225.6c-56-80-147.2-132.8-249.6-132.8-168 0-305.6 140.8-307.2 315.2 0 0 72 0 75.2 0s19.2 12.8 4.8 28.8-121.6 131.2-129.6 139.2c-14.4 16-20.8 14.4-33.6-1.6-11.2-12.8-107.2-124.8-118.4-137.6-14.4-16 1.6-27.2 8-27.2s75.2 0 75.2 0c1.6-241.6 190.4-436.8 425.6-436.8 136 0 256 65.6 334.4 168l-84.8 84.8zM939.2 408v0c0 1.6 0 1.6 0 1.6 0 241.6-190.4 438.4-425.6 438.4-136 0-257.6-67.2-336-169.6l84.8-86.4c56 81.6 147.2 134.4 251.2 134.4 169.6 0 307.2-142.4 307.2-316.8 0 0 0-1.6 0-1.6s-36.8-1.6-78.4-1.6c-16 0-17.6-17.6-9.6-25.6 38.4-38.4 124.8-124.8 131.2-132.8 4.8-4.8 20.8-17.6 38.4 0s104 115.2 118.4 132.8c9.6 12.8 1.6 25.6-8 25.6-33.6 1.6-73.6 1.6-73.6 1.6z" />
<glyph unicode="&#xe938;" glyph-name="rerun" data-tags="rerun" d="M601.6 179.2c12.8 0 22.4 8 22.4 19.2v422.4c0 4.8-1.6 9.6-6.4 12.8-9.6 8-24 8-33.6 0l-252.8-209.6c-9.6-8-9.6-19.2 0-27.2l252.8-211.2c4.8-4.8 11.2-6.4 17.6-6.4zM512 921.6c-142.4 0-272-59.2-364.8-153.6l-65.6 64c-12.8 11.2-24 4.8-24-16l-17.6-188.8c0-20.8 14.4-35.2 33.6-32l198.4 16c17.6 3.2 22.4 16 9.6 28.8l-64 62.4c75.2 73.6 180.8 123.2 294.4 123.2 230.4 0 416-185.6 416-416s-185.6-416-416-416-416 185.6-416 416c0 25.6-22.4 48-48 48s-48-22.4-48-48c0-281.6 230.4-512 512-512s512 233.6 512 512c0 281.6-230.4 512-512 512z" />
<glyph unicode="&#xe939;" glyph-name="reset" data-tags="reset" d="M283.2-16c-81.6 48-144 115.2-187.2 192l155.2 35.2c25.6-35.2 67.2-73.6 107.2-96 156.8-91.2 376-32 465.6 123.2 89.6 156.8 33.6 368-123.2 459.2-132.8 76.8-334.4 41.6-436.8-62.4 0 0 67.2-43.2 99.2-64 52.8-32-1.6-46.4-48-67.2 0 0-211.2-86.4-214.4-88-30.4-9.6-64-22.4-75.2 51.2l-20.8 257.6c-14.4 65.6 3.2 80 33.6 65.6 88-56 102.4-73.6 102.4-73.6 148.8 187.2 417.6 243.2 633.6 118.4 236.8-137.6 320-438.4 184-673.6s-438.4-315.2-675.2-177.6v0z" />
<glyph unicode="&#xe93a;" glyph-name="restart" data-tags="restart" d="M499.2 644.8c-25.6 0-38.4-14.4-38.4-33.6v-216c0-14.4 8-48 44.8-48h214.4c24 0 40 16 40 40 0 28.8-20.8 40-40 40h-182.4v185.6c0 17.6-16 32-38.4 32zM512 921.6c-142.4 0-272-59.2-364.8-153.6l-65.6 64c-12.8 11.2-24 4.8-24-16l-17.6-188.8c0-20.8 14.4-35.2 33.6-32l198.4 16c17.6 3.2 22.4 16 9.6 28.8l-64 62.4c75.2 73.6 180.8 123.2 294.4 123.2 230.4 0 416-185.6 416-416s-185.6-416-416-416-416 185.6-416 416c0 25.6-22.4 48-48 48s-48-22.4-48-48c0-281.6 230.4-512 512-512s512 233.6 512 512c0 281.6-230.4 512-512 512z" />
<glyph unicode="&#xe93b;" glyph-name="save" data-tags="save" d="M852.8-19.2l59.2-3.2v595.2c0 67.2-137.6 248-137.6 248-12.8 19.2-16 30.4-60.8 30.4v-289.6c0-19.2-6.4-32-19.2-44.8s-40-27.2-51.2-27.2l-403.2-3.2c-19.2 0-30.4 6.4-43.2 19.2s-19.2 32-19.2 44.8v296h-72v-868.8h70.4v297.6c0 19.2 6.4 32 19.2 44.8s24 19.2 43.2 19.2l552 3.2c19.2 0 30.4-6.4 43.2-19.2s19.2-25.6 19.2-44.8v-297.6zM641.6 588.8v224c0 12.8-1.6 25.6-19.2 25.6h-161.6c-16 0-19.2-6.4-19.2-25.6v-224c0-12.8 4.8-19.2 19.2-19.2h161.6c16 0 19.2 4.8 19.2 19.2v0zM988.8 595.2v-617.6c0-27.2-6.4-48-19.2-60.8s-25.6-19.2-43.2-19.2h-828.8c-19.2 0-30.4 6.4-43.2 19.2s-19.2 25.6-19.2 44.8v892.8c0 19.2 6.4 32 19.2 44.8s25.6 19.2 43.2 19.2l632 3.2c59.2 0 81.6-12.8 105.6-44.8 0 0 153.6-216 153.6-281.6v0 0z" />
<glyph unicode="&#xe93c;" glyph-name="search" data-tags="search" d="M995.2-73.6c-36.8-36.8-99.2-36.8-136 0l-169.6 169.6c-70.4-44.8-152-72-241.6-72-248 0-448 201.6-448 448s201.6 449.6 448 449.6c248 0 448-201.6 448-448 0-89.6-27.2-171.2-72-241.6l169.6-169.6c40-38.4 40-99.2 1.6-136zM448 793.6c-176 0-320-144-320-320s144-320 320-320c177.6 0 320 144 320 320s-142.4 320-320 320z" />
<glyph unicode="&#xe93d;" glyph-name="setting" data-tags="setting" d="M948.8 312c-51.2 86.4-27.2 193.6 52.8 252.8 11.2 8 14.4 25.6 8 38.4l-76.8 128c-8 12.8-22.4 17.6-35.2 12.8-24-9.6-51.2-16-80-16-102.4 0-187.2 75.2-200 171.2-1.6 12.8-14.4 22.4-28.8 22.4h-155.2c-14.4 0-27.2-11.2-28.8-24-3.2-25.6-11.2-49.6-25.6-73.6-51.2-86.4-161.6-120-256-81.6-12.8 4.8-27.2 0-35.2-12.8l-76.8-128c-8-12.8-4.8-28.8 8-38.4 20.8-14.4 38.4-35.2 52.8-57.6 54.4-84.8 30.4-192-49.6-251.2-11.2-8-14.4-25.6-8-38.4l76.8-128c8-12.8 22.4-17.6 35.2-12.8 24 9.6 51.2 16 80 16 102.4 0 187.2-73.6 200-169.6 1.6-14.4 14.4-24 28.8-24h155.2c14.4 0 27.2 11.2 28.8 25.6 9.6 70.4 59.2 139.2 160 176 40 14.4 80 1.6 116.8-20.8 12.8-8 30.4-3.2 38.4 11.2l76.8 128c8 12.8 4.8 28.8-8 38.4-22.4 12.8-40 32-54.4 56zM512 201.6c-118.4 0-214.4 92.8-214.4 208s96 208 214.4 208 214.4-92.8 214.4-208c0-113.6-96-208-214.4-208z" />
<glyph unicode="&#xe93e;" glyph-name="share" data-tags="share" d="M814.4 254.4c48 0 92.8-20.8 126.4-52.8v0c32-32 52.8-76.8 52.8-126.4-1.6-97.6-81.6-177.6-179.2-177.6s-177.6 80-177.6 179.2c0 20.8 3.2 38.4 9.6 57.6l-190.4 113.6c-3.2-3.2-6.4-6.4-8-9.6l-3.2-1.6c-43.2-43.2-104-68.8-169.6-68.8-134.4-1.6-243.2 108.8-243.2 241.6s108.8 243.2 243.2 243.2c67.2 0 128-27.2 171.2-72v0 0c3.2-3.2 6.4-6.4 8-9.6l190.4 113.6c-6.4 19.2-9.6 38.4-9.6 57.6 0 99.2 81.6 179.2 179.2 179.2s177.6-80 177.6-177.6c0-99.2-80-177.6-177.6-177.6-49.6-1.6-94.4 19.2-126.4 51.2l-1.6 1.6-188.8-113.6c12.8-28.8 19.2-62.4 19.2-96s-6.4-67.2-19.2-96l188.8-113.6 1.6 1.6c32 32 76.8 52.8 126.4 52.8v0z" />
<glyph unicode="&#xe93f;" glyph-name="shopping" data-tags="shopping" d="M984 672v0c3.2 0 6.4 0 9.6-1.6 20.8-4.8 33.6-27.2 28.8-48l-57.6-321.6c-3.2-19.2-19.2-33.6-40-33.6h-571.2l27.2-99.2h521.6c22.4 0 40-17.6 40-40 0-20.8-14.4-36.8-35.2-40 9.6-16 16-35.2 16-54.4 0-28.8-11.2-54.4-30.4-73.6v0c-19.2-19.2-44.8-30.4-72-30.4-28.8 0-54.4 11.2-73.6 30.4s-30.4 44.8-30.4 73.6c0 19.2 6.4 38.4 16 54.4h-302.4c9.6-16 16-35.2 16-54.4 0-28.8-11.2-54.4-30.4-73.6-17.6-19.2-44.8-30.4-72-30.4s-52.8 11.2-72 28.8l-1.6 1.6c-19.2 19.2-30.4 44.8-30.4 73.6s11.2 54.4 30.4 72c11.2 9.6 22.4 19.2 36.8 24l-180.8 680h-86.4c-22.4 0-40 17.6-40 40s17.6 40 40 40h116.8c19.2 0 35.2-12.8 40-32l51.2-195.2 736 9.6z" />
<glyph unicode="&#xe940;" glyph-name="star-on" data-tags="star-on" d="M1020.8 536c-9.6 25.6-32 44.8-59.2 48l-267.2 40-115.2 240c-12.8 25.6-38.4 41.6-67.2 41.6s-54.4-16-67.2-41.6l-115.2-240-267.2-40c-27.2-4.8-49.6-22.4-59.2-48s-1.6-54.4 17.6-73.6l195.2-195.2-44.8-270.4c-4.8-27.2 8-54.4 30.4-70.4 12.8-8 27.2-12.8 43.2-12.8 12.8 0 24 3.2 35.2 9.6l232 124.8 232-124.8c11.2-6.4 24-9.6 35.2-9.6 14.4 0 30.4 4.8 43.2 12.8 22.4 16 35.2 43.2 30.4 70.4l-44.8 270.4 195.2 195.2c19.2 19.2 25.6 48 17.6 73.6z" />
<glyph unicode="&#xe941;" glyph-name="sum" data-tags="sum" d="M512-102.4c-321.6 0-457.6 113.6-457.6 348.8 0 195.2 153.6 398.4 339.2 462.4h236.8c185.6-64 339.2-267.2 339.2-462.4 0-235.2-136-348.8-457.6-348.8v0 0zM638.4 283.2v0c20.8 0 38.4 17.6 38.4 38.4s-16 40-38.4 40v0h-78.4c0 1.6 0 1.6 0 3.2l91.2 92.8c14.4 16 8 30.4-8 46.4s-40 19.2-52.8 4.8l-78.4-83.2-84.8 84.8c-11.2 11.2-32 6.4-46.4-8s-19.2-35.2-8-46.4l88-86.4c-1.6-1.6-3.2-4.8-3.2-6.4h-70.4c-20.8 0-38.4-17.6-38.4-38.4s17.6-38.4 38.4-38.4v0 0h76.8v-38.4h-78.4c-20.8 0-38.4-17.6-38.4-38.4s17.6-38.4 38.4-38.4v0 0h78.4v-38.4c0-3.2-1.6-6.4-1.6-9.6 0-27.2 22.4-48 48-48 27.2 0 48 20.8 48 48 0 3.2 0 6.4-1.6 9.6v0 38.4h78.4c20.8 0 38.4 17.6 38.4 38.4s-17.6 38.4-38.4 38.4v0h-75.2v38.4h78.4v-3.2zM688 852.8c0 0-70.4-86.4-70.4-86.4h-232c0 0-70.4 86.4-70.4 88 0 0-8 8-8 19.2 0 12.8 6.4 22.4 19.2 27.2s96 20.8 176 20.8c83.2 0 164.8-16 176-20.8 12.8-4.8 19.2-14.4 19.2-27.2 0-11.2-9.6-20.8-9.6-20.8z" />
<glyph unicode="&#xe942;" glyph-name="swap-down" data-tags="swap-down" d="M33.6 406.4c17.6-20.8 396.8-449.6 432-489.6 20.8-25.6 75.2-25.6 96 0 20.8 28.8 403.2 464 432 496 20.8 25.6 6.4 67.2-35.2 67.2-17.6 0-136 0-286.4 0 0 0 0 310.4 0 414.4 0 11.2-6.4 25.6-25.6 25.6-121.6 3.2-206.4 0-292.8 0-11.2 0-20.8-14.4-20.8-25.6 0-104 0-414.4 0-414.4-142.4 0-252.8 0-267.2 0-40-1.6-57.6-44.8-32-73.6z" />
<glyph unicode="&#xe943;" glyph-name="swap-left" data-tags="swap-left" d="M508.8 889.6c-20.8-17.6-449.6-396.8-489.6-428.8-25.6-20.8-25.6-75.2 0-96 28.8-25.6 464-406.4 496-435.2 25.6-20.8 67.2-6.4 67.2 35.2 0 17.6 0 136 0 286.4 0 0 310.4 0 414.4 0 11.2 0 25.6 6.4 25.6 25.6 3.2 121.6 0 206.4 0 292.8 0 11.2-14.4 20.8-25.6 20.8-104 0-414.4 0-414.4 0 0 142.4 0 252.8 0 267.2-3.2 38.4-44.8 56-73.6 32z" />
<glyph unicode="&#xe944;" glyph-name="swap-right" data-tags="swap-right" d="M515.2 889.6c20.8-17.6 449.6-396.8 489.6-432 25.6-20.8 25.6-75.2 0-96-28.8-20.8-464-403.2-496-432-25.6-20.8-67.2-6.4-67.2 35.2 0 17.6 0 136 0 286.4 0 0-310.4 0-414.4 0-11.2 0-25.6 6.4-25.6 25.6-3.2 121.6 0 206.4 0 292.8 0 11.2 14.4 20.8 25.6 20.8 104 0 414.4 0 414.4 0 0 142.4 0 252.8 0 267.2 3.2 38.4 44.8 56 73.6 32z" />
<glyph unicode="&#xe945;" glyph-name="swap-up" data-tags="swap-up" d="M33.6 414.4c17.6 20.8 396.8 449.6 428.8 489.6 20.8 25.6 75.2 25.6 96 0 25.6-28.8 406.4-464 435.2-496 20.8-25.6 6.4-67.2-35.2-67.2-17.6 0-136 0-286.4 0 0 0 0-310.4 0-414.4 0-11.2-6.4-25.6-25.6-25.6-121.6-3.2-206.4 0-292.8 0-11.2 0-20.8 14.4-20.8 25.6 0 104 0 414.4 0 414.4-142.4 0-252.8 0-267.2 0-40 1.6-57.6 44.8-32 73.6z" />
<glyph unicode="&#xe946;" glyph-name="table" data-tags="table" d="M976 857.6h-928c-27.2 0-48-20.8-48-48v-800c0-27.2 20.8-48 48-48h928c27.2 0 48 20.8 48 48v800c0 27.2-20.8 48-48 48zM384 803.2c27.2 0 48-22.4 48-48 0-27.2-22.4-48-48-48-27.2 0-48 22.4-48 48s20.8 48 48 48zM240 803.2c27.2 0 48-22.4 48-48 0-27.2-22.4-48-48-48-27.2 0-48 22.4-48 48s20.8 48 48 48zM96 803.2c27.2 0 48-22.4 48-48 0-27.2-22.4-48-48-48-27.2 0-48 22.4-48 48s20.8 48 48 48zM316.8 32h-248v156.8h248v-156.8zM316.8 256h-248v156.8h248v-156.8zM316.8 480h-248v158.4h248v-158.4zM638.4 32h-246.4v156.8h248v-156.8zM638.4 256h-246.4v156.8h248v-156.8zM638.4 480h-246.4v158.4h248v-158.4zM956.8 32h-248v156.8h248v-156.8zM956.8 256h-248v156.8h248v-156.8zM956.8 480h-248v158.4h248v-158.4z" />
<glyph unicode="&#xe947;" glyph-name="tel" data-tags="tel" d="M777.6-102.4v0h-4.8c-123.2 6.4-289.6 121.6-444.8 308.8l-56 70.4c-155.2 187.2-236.8 369.6-217.6 489.6 12.8 84.8 137.6 155.2 209.6 155.2 35.2 0 48-17.6 52.8-27.2 40-72 91.2-196.8 91.2-241.6v-3.2l-1.6-3.2c-9.6-24-28.8-35.2-46.4-44.8-24-12.8-36.8-22.4-38.4-46.4 0-8 6.4-41.6 108.8-168l43.2-52.8c102.4-121.6 134.4-134.4 142.4-136 24-3.2 36.8 8 54.4 27.2 12.8 14.4 28.8 32 54.4 35.2h6.4c44.8-9.6 158.4-83.2 224-137.6 9.6-6.4 25.6-24 12.8-65.6-20.8-65.6-108.8-160-190.4-160v0z" />
<glyph unicode="&#xe948;" glyph-name="time" data-tags="time" d="M512 921.6c-283.2 0-512-228.8-512-512s228.8-512 512-512c283.2 0 512 228.8 512 512s-228.8 512-512 512zM768 353.6h-272c-6.4 0-11.2 1.6-16 3.2-14.4 6.4-25.6 20.8-25.6 38.4v272c0 22.4 19.2 41.6 41.6 41.6 24 0 41.6-19.2 41.6-41.6v-230.4h230.4c22.4 0 41.6-19.2 41.6-41.6 0-24-17.6-41.6-41.6-41.6z" />
<glyph unicode="&#xe949;" glyph-name="unlock" data-tags="unlock" d="M544 224v-134.4h-64v134.4c-36.8 12.8-64 48-64 89.6 0 52.8 43.2 96 96 96s96-43.2 96-96c0-41.6-27.2-76.8-64-89.6zM736 697.6c0 123.2-100.8 224-224 224s-224-100.8-224-224v-128h-96c-35.2 0-64-28.8-64-64v-544c0-35.2 28.8-64 64-64h640c35.2 0 64 28.8 64 64v544c0 35.2-28.8 64-64 64h-448v128c0 70.4 57.6 128 128 128s128-57.6 128-128v0h96z" />
<glyph unicode="&#xe94a;" glyph-name="upload" data-tags="upload" d="M494.4 905.6c9.6 9.6 25.6 9.6 35.2 0l403.2-403.2c8-8 9.6-17.6 4.8-27.2-1.6-3.2-3.2-6.4-4.8-8-4.8-4.8-11.2-8-17.6-8h-208v-340.8c0-6.4-3.2-12.8-8-17.6s-11.2-8-17.6-8h-342.4c-14.4 0-25.6 11.2-25.6 25.6v340.8h-206.4c-9.6 0-19.2 6.4-24 16-3.2 9.6-1.6 20.8 4.8 27.2l406.4 403.2zM920 280v-270.4h-814.4v270.4h-105.6v-289.6c0-46.4 36.8-83.2 83.2-83.2h856c46.4 0 83.2 36.8 83.2 83.2v289.6h-102.4z" />
<glyph unicode="&#xe94b;" glyph-name="user" data-tags="user" d="M1024-54.4v-48h-1024v48c0 176 393.6 137.6 393.6 310.4 0 16 0 30.4 0 49.6-19.2 20.8-62.4 73.6-78.4 145.6-17.6 8-32 25.6-41.6 49.6-12.8 33.6-14.4 81.6 11.2 112 0 0 0 1.6 0 1.6-4.8 43.2-17.6 156.8 51.2 230.4 40 43.2 99.2 76.8 176 78.4 76.8-1.6 136-35.2 176-78.4 68.8-73.6 56-187.2 51.2-230.4 0 0 0-1.6 0-1.6 25.6-30.4 24-76.8 11.2-112-9.6-24-24-41.6-41.6-49.6-17.6-72-60.8-124.8-78.4-145.6 0-17.6 0-35.2 0-51.2-1.6-169.6 393.6-131.2 393.6-308.8v0 0z" />
<glyph unicode="&#xe94c;" glyph-name="view" data-tags="view" d="M512 745.6c-228.8 0-425.6-139.2-512-336 86.4-196.8 283.2-336 512-336s425.6 137.6 512 336c-86.4 196.8-283.2 336-512 336zM696 377.6c-12.8-76.8-75.2-139.2-152-152-128-20.8-236.8 88-216 216 12.8 76.8 75.2 139.2 152 152 128 20.8 236.8-88 216-216zM534.4 520c-78.4 14.4-147.2-52.8-131.2-131.2 8-44.8 43.2-80 88-88 78.4-14.4 147.2 52.8 131.2 131.2-9.6 43.2-44.8 78.4-88 88z" />
<glyph unicode="&#xe94d;" glyph-name="warning" data-tags="warning" d="M873.6 771.2v0c-92.8 94.4-220.8 150.4-363.2 150.4-139.2 0-265.6-56-358.4-147.2l-3.2-3.2c-92.8-91.2-148.8-220.8-148.8-361.6 0-142.4 56-270.4 148.8-363.2v0c92.8-92.8 220.8-150.4 361.6-150.4 139.2 0 267.2 56 360 147.2l3.2 3.2c92.8 94.4 150.4 222.4 150.4 363.2s-57.6 270.4-150.4 361.6zM512 128c-28.8 0-51.2 22.4-51.2 51.2 0 27.2 22.4 51.2 51.2 51.2 27.2 0 49.6-22.4 49.6-51.2s-22.4-51.2-49.6-51.2zM563.2 321.6c0-28.8-22.4-51.2-51.2-51.2s-51.2 22.4-51.2 51.2v320c0 28.8 22.4 51.2 51.2 51.2 27.2 0 51.2-22.4 51.2-51.2v-320z" />
<glyph unicode="&#xe94e;" glyph-name="document" data-tags="document" d="M723.2 921.6h-531.2c-51.2 0-89.6-41.6-89.6-89.6v-368c0 0 0-476.8 0-476.8 0-48 38.4-89.6 89.6-89.6h640c48 0 89.6 41.6 89.6 89.6v736l-198.4 198.4zM560 339.2h-281.6c-25.6 0-44.8 19.2-44.8 44.8s19.2 44.8 44.8 44.8h281.6c25.6 0 44.8-19.2 44.8-44.8 0-22.4-22.4-44.8-44.8-44.8zM745.6 537.6h-467.2c-25.6 0-44.8 19.2-44.8 44.8s19.2 44.8 44.8 44.8h467.2c25.6 0 44.8-19.2 44.8-44.8s-19.2-44.8-44.8-44.8zM723.2 726.4v144l144-144h-144z" />
</font>
</defs>
</svg>
